<svg width="current" height="current" viewBox="0 0 16 16" fill="current" xmlns="http://www.w3.org/2000/svg">
	<path d="M12.6667 6.77973C12.667 6.87932 12.645 6.97773 12.6024 7.06772C12.5597 7.1577 12.4974 7.23698 12.42 7.29973L8.42002 10.5197C8.30073 10.6178 8.1511 10.6714 7.99669 10.6714C7.84227 10.6714 7.69264 10.6178 7.57335 10.5197L3.57335 7.18639C3.43721 7.07324 3.35159 6.91063 3.33534 6.73434C3.31909 6.55806 3.37353 6.38254 3.48669 6.24639C3.59985 6.11025 3.76245 6.02463 3.93874 6.00838C4.11502 5.99213 4.29054 6.04657 4.42669 6.15973L8.00002 9.13973L11.5734 6.25973C11.6712 6.17821 11.7904 6.12642 11.9167 6.1105C12.0431 6.09458 12.1714 6.11519 12.2864 6.1699C12.4014 6.2246 12.4984 6.31111 12.5658 6.41918C12.6332 6.52725 12.6682 6.65237 12.6667 6.77973Z" />
</svg>
