<svg xmlns="http://www.w3.org/2000/svg" width="current" height="current" viewBox="0 0 16 17" fill="none">
	<path d="M12 3.16683H11.3333V2.50016C11.3333 2.32335 11.2631 2.15378 11.1381 2.02876C11.013 1.90373 10.8435 1.8335 10.6667 1.8335C10.4899 1.8335 10.3203 1.90373 10.1953 2.02876C10.0702 2.15378 10 2.32335 10 2.50016V3.16683H6V2.50016C6 2.32335 5.92976 2.15378 5.80474 2.02876C5.67971 1.90373 5.51014 1.8335 5.33333 1.8335C5.15652 1.8335 4.98695 1.90373 4.86193 2.02876C4.7369 2.15378 4.66667 2.32335 4.66667 2.50016V3.16683H4C3.46957 3.16683 2.96086 3.37754 2.58579 3.75262C2.21071 4.12769 2 4.6364 2 5.16683V13.1668C2 13.6973 2.21071 14.206 2.58579 14.581C2.96086 14.9561 3.46957 15.1668 4 15.1668H12C12.5304 15.1668 13.0391 14.9561 13.4142 14.581C13.7893 14.206 14 13.6973 14 13.1668V5.16683C14 4.6364 13.7893 4.12769 13.4142 3.75262C13.0391 3.37754 12.5304 3.16683 12 3.16683ZM5.33333 11.8335C5.20148 11.8335 5.07259 11.7944 4.96295 11.7211C4.85332 11.6479 4.76787 11.5438 4.71741 11.422C4.66695 11.3001 4.65375 11.1661 4.67948 11.0368C4.7052 10.9074 4.76869 10.7887 4.86193 10.6954C4.95516 10.6022 5.07395 10.5387 5.20327 10.513C5.33259 10.4872 5.46664 10.5005 5.58846 10.5509C5.71027 10.6014 5.81439 10.6868 5.88765 10.7964C5.9609 10.9061 6 11.035 6 11.1668C6 11.3436 5.92976 11.5132 5.80474 11.6382C5.67971 11.7633 5.51014 11.8335 5.33333 11.8335ZM10.6667 11.8335H8C7.82319 11.8335 7.65362 11.7633 7.5286 11.6382C7.40357 11.5132 7.33333 11.3436 7.33333 11.1668C7.33333 10.99 7.40357 10.8204 7.5286 10.6954C7.65362 10.5704 7.82319 10.5002 8 10.5002H10.6667C10.8435 10.5002 11.013 10.5704 11.1381 10.6954C11.2631 10.8204 11.3333 10.99 11.3333 11.1668C11.3333 11.3436 11.2631 11.5132 11.1381 11.6382C11.013 11.7633 10.8435 11.8335 10.6667 11.8335ZM12.6667 7.8335H3.33333V5.16683C3.33333 4.99002 3.40357 4.82045 3.5286 4.69543C3.65362 4.5704 3.82319 4.50016 4 4.50016H4.66667V5.16683C4.66667 5.34364 4.7369 5.51321 4.86193 5.63823C4.98695 5.76326 5.15652 5.8335 5.33333 5.8335C5.51014 5.8335 5.67971 5.76326 5.80474 5.63823C5.92976 5.51321 6 5.34364 6 5.16683V4.50016H10V5.16683C10 5.34364 10.0702 5.51321 10.1953 5.63823C10.3203 5.76326 10.4899 5.8335 10.6667 5.8335C10.8435 5.8335 11.013 5.76326 11.1381 5.63823C11.2631 5.51321 11.3333 5.34364 11.3333 5.16683V4.50016H12C12.1768 4.50016 12.3464 4.5704 12.4714 4.69543C12.5964 4.82045 12.6667 4.99002 12.6667 5.16683V7.8335Z" fill="current" />
</svg>
