<svg xmlns="http://www.w3.org/2000/svg" width="current" height="current" viewBox="0 0 16 17" fill="none">
	<path d="M13.6069 4.4265L10.9402 3.2265H10.9069H10.8269H10.7469H10.5802H10.5136H10.4269H10.3936L8.00024 4.29984L5.60691 3.2265H5.57357L5.49357 3.1665H5.41357H5.24691H5.18024H5.09358L2.42691 4.3665C2.2939 4.41747 2.18071 4.50969 2.10393 4.62967C2.02715 4.74964 1.99081 4.89105 2.00024 5.03317V13.1665C2.00043 13.278 2.0286 13.3878 2.08218 13.4856C2.13575 13.5834 2.21302 13.6663 2.30691 13.7265C2.41421 13.7958 2.53917 13.8328 2.66691 13.8332C2.76124 13.8327 2.8544 13.8123 2.94024 13.7732L5.33358 12.6998L7.72691 13.7732H7.76024C7.83537 13.8083 7.9173 13.8265 8.00024 13.8265C8.08318 13.8265 8.16511 13.8083 8.24024 13.7732H8.27357L10.6669 12.6998L13.0602 13.7732C13.1461 13.8123 13.2392 13.8327 13.3336 13.8332C13.4613 13.8328 13.5863 13.7958 13.6936 13.7265C13.7875 13.6663 13.8647 13.5834 13.9183 13.4856C13.9719 13.3878 14.0001 13.278 14.0002 13.1665V5.03317C14 4.90493 13.9627 4.77949 13.893 4.67188C13.8232 4.56428 13.7239 4.47908 13.6069 4.4265ZM3.33358 5.45984L4.66691 4.8665V11.5332L3.33358 12.1265V5.45984ZM6.00024 4.8665L7.33357 5.45984V12.1265L6.00024 11.5332V4.8665ZM8.66691 5.45984L10.0002 4.8665V11.5332L8.66691 12.1265V5.45984ZM12.6669 12.1265L11.3336 11.5332V4.8665L12.6669 5.45984V12.1265Z" fill="current" />
</svg>
