<svg xmlns="http://www.w3.org/2000/svg" width="current" height="current" viewBox="0 0 70 70" fill="none">
  <path d="M38.875 27.7083C38.875 29.8484 37.1401 31.5833 35 31.5833C32.8599 31.5833 31.125 29.8484 31.125 27.7083C31.125 25.5681 32.8599 23.8333 35 23.8333C37.1401 23.8333 38.875 25.5681 38.875 27.7083Z" fill="current" stroke="current"/>
  <path d="M36.598 63.0652L36.5842 63.0755L36.5712 63.0866C36.1334 63.461 35.5763 63.6668 35.0003 63.6668C34.4243 63.6668 33.8672 63.461 33.4295 63.0866L33.4272 63.0846C32.9645 62.6836 27.651 58.0789 22.4475 51.5963C17.2068 45.0672 12.1681 36.7423 12.167 28.9357C12.2278 22.9205 14.6599 17.1723 18.9349 12.9401C23.2105 8.70723 28.9839 6.33295 35.0003 6.33325L35.0004 6.33325C41.0168 6.33295 46.7902 8.70723 51.0658 12.9401C55.3407 17.1722 57.7728 22.9204 57.8337 28.9356C57.8327 36.7432 52.8291 45.0687 47.6073 51.597C42.3981 58.1094 37.0689 62.7154 36.598 63.0652ZM29.0511 36.6119C30.8121 37.7886 32.8824 38.4166 35.0003 38.4166C37.8404 38.4166 40.5641 37.2884 42.5723 35.2802C44.5805 33.272 45.7087 30.5483 45.7087 27.7083C45.7087 25.5903 45.0806 23.52 43.904 21.759C42.7273 19.998 41.0549 18.6255 39.0982 17.815C37.1415 17.0046 34.9884 16.7925 32.9112 17.2057C30.834 17.6189 28.926 18.6387 27.4284 20.1363C25.9308 21.6339 24.9109 23.5419 24.4977 25.6192C24.0846 27.6964 24.2966 29.8495 25.1071 31.8062C25.9176 33.7628 27.2901 35.4353 29.0511 36.6119Z" fill="current" stroke="current"/>
</svg>