<svg width="24" height="25" viewBox="0 0 24 25" fill="none" xmlns="http://www.w3.org/2000/svg">
<g id="crown-minimalistic-svgrepo-com 1">
<path id="Vector" d="M21.609 14.0616L21.8382 11.6263C22.0182 9.7137 22.1082 8.75739 21.781 8.36207C21.604 8.14823 21.3633 8.0172 21.106 7.9946C20.6303 7.95282 20.0329 8.6329 18.8381 9.99307C18.2202 10.6965 17.9113 11.0482 17.5666 11.1027C17.3757 11.1328 17.1811 11.1018 17.0047 11.0131C16.6865 10.8529 16.4743 10.4181 16.0499 9.54851L13.8131 4.96485C13.0112 3.32162 12.6102 2.5 12 2.5C11.3898 2.5 10.9888 3.32162 10.1869 4.96486L7.95007 9.54852C7.5257 10.4181 7.31351 10.8529 6.99526 11.0131C6.81892 11.1018 6.62434 11.1328 6.43337 11.1027C6.08872 11.0482 5.77977 10.6965 5.16187 9.99307C3.96708 8.6329 3.36968 7.95282 2.89399 7.9946C2.63666 8.0172 2.39598 8.14823 2.21899 8.36207C1.8918 8.75739 1.9818 9.7137 2.16181 11.6263L2.391 14.0616C2.76865 18.0742 2.95748 20.0805 4.14009 21.2902C5.32271 22.5 7.09517 22.5 10.6401 22.5H13.3599C16.9048 22.5 18.6773 22.5 19.8599 21.2902C21.0425 20.0805 21.2313 18.0742 21.609 14.0616Z" fill="#FFCD29"/>
</g>
</svg>
