<svg width="current" height="current" viewBox="0 0 25 25" fill="current" xmlns="http://www.w3.org/2000/svg">
	<path d="M17.8635 8.24803H16.8635V6.35803C16.8635 5.29717 16.442 4.27975 15.6919 3.52961C14.9417 2.77946 13.9243 2.35803 12.8635 2.35803C11.8026 2.35803 10.7852 2.77946 10.035 3.52961C9.28489 4.27975 8.86346 5.29717 8.86346 6.35803V8.24803H7.86346C7.06781 8.24803 6.30475 8.5641 5.74214 9.12671C5.17953 9.68932 4.86346 10.4524 4.86346 11.248V19.248C4.86346 20.0437 5.17953 20.8067 5.74214 21.3694C6.30475 21.932 7.06781 22.248 7.86346 22.248H17.8635C18.6591 22.248 19.4222 21.932 19.9848 21.3694C20.5474 20.8067 20.8635 20.0437 20.8635 19.248V11.248C20.8635 10.4524 20.5474 9.68932 19.9848 9.12671C19.4222 8.5641 18.6591 8.24803 17.8635 8.24803ZM10.8635 6.35803C10.85 5.81333 11.0529 5.28548 11.4277 4.89003C11.8026 4.49458 12.3188 4.26374 12.8635 4.24803C13.4081 4.26374 13.9243 4.49458 14.2992 4.89003C14.674 5.28548 14.8769 5.81333 14.8635 6.35803V8.24803H10.8635V6.35803ZM18.8635 19.248C18.8635 19.5132 18.7581 19.7676 18.5706 19.9551C18.383 20.1427 18.1287 20.248 17.8635 20.248H7.86346C7.59825 20.248 7.34389 20.1427 7.15636 19.9551C6.96882 19.7676 6.86346 19.5132 6.86346 19.248V11.248C6.86346 10.9828 6.96882 10.7285 7.15636 10.5409C7.34389 10.3534 7.59825 10.248 7.86346 10.248H17.8635C18.1287 10.248 18.383 10.3534 18.5706 10.5409C18.7581 10.7285 18.8635 10.9828 18.8635 11.248V19.248Z" />
	<path d="M12.8635 12.248C12.2701 12.248 11.6901 12.424 11.1968 12.7536C10.7034 13.0833 10.3189 13.5518 10.0918 14.1C9.86476 14.6482 9.80535 15.2514 9.92111 15.8333C10.0369 16.4153 10.3226 16.9498 10.7421 17.3694C11.1617 17.7889 11.6963 18.0746 12.2782 18.1904C12.8601 18.3062 13.4633 18.2467 14.0115 18.0197C14.5597 17.7926 15.0282 17.4081 15.3579 16.9148C15.6875 16.4214 15.8635 15.8414 15.8635 15.248C15.8635 14.4524 15.5474 13.6893 14.9848 13.1267C14.4222 12.5641 13.6591 12.248 12.8635 12.248ZM12.8635 16.248C12.6657 16.248 12.4723 16.1894 12.3079 16.0795C12.1434 15.9696 12.0153 15.8135 11.9396 15.6307C11.8639 15.448 11.8441 15.2469 11.8827 15.053C11.9213 14.859 12.0165 14.6808 12.1564 14.5409C12.2962 14.4011 12.4744 14.3058 12.6684 14.2673C12.8624 14.2287 13.0634 14.2485 13.2461 14.3242C13.4289 14.3999 13.5851 14.528 13.6949 14.6925C13.8048 14.8569 13.8635 15.0503 13.8635 15.248C13.8635 15.5133 13.7581 15.7676 13.5706 15.9552C13.383 16.1427 13.1287 16.248 12.8635 16.248Z" />
</svg>
