<svg width="24" height="24" viewBox="0 0 24 24" fill="current" xmlns="http://www.w3.org/2000/svg">
	<path d="M20.4102 5.89L16.4102 4.09H16.3602H16.2402H16.1202H15.8702H15.7702H15.6402H15.5902L12.0002 5.7L8.41024 4.09H8.36024L8.24024 4H8.12024H7.87024H7.77024H7.64024L3.64024 5.8C3.44073 5.87645 3.27095 6.01479 3.15578 6.19474C3.0406 6.3747 2.9861 6.58681 3.00024 6.8V19C3.00052 19.1673 3.04278 19.3319 3.12314 19.4786C3.20351 19.6254 3.31941 19.7496 3.46024 19.84C3.6212 19.944 3.80863 19.9995 4.00024 20C4.14174 19.9993 4.28148 19.9687 4.41024 19.91L8.00024 18.3L11.5902 19.91H11.6402C11.7529 19.9627 11.8758 19.99 12.0002 19.99C12.1246 19.99 12.2475 19.9627 12.3602 19.91H12.4102L16.0002 18.3L19.5902 19.91C19.719 19.9687 19.8587 19.9993 20.0002 20C20.1919 19.9995 20.3793 19.944 20.5402 19.84C20.6811 19.7496 20.797 19.6254 20.8773 19.4786C20.9577 19.3319 21 19.1673 21.0002 19V6.8C20.9998 6.60764 20.944 6.41948 20.8393 6.25807C20.7347 6.09667 20.5857 5.96887 20.4102 5.89ZM5.00024 7.44L7.00024 6.55V16.55L5.00024 17.44V7.44ZM9.00024 6.55L11.0002 7.44V17.44L9.00024 16.55V6.55ZM13.0002 7.44L15.0002 6.55V16.55L13.0002 17.44V7.44ZM19.0002 17.44L17.0002 16.55V6.55L19.0002 7.44V17.44Z" />
</svg>
