<svg width="70" height="70" viewBox="0 0 70 70" fill="none" xmlns="http://www.w3.org/2000/svg">
<path d="M38.875 27.7083C38.875 29.8484 37.1401 31.5833 35 31.5833C32.8599 31.5833 31.125 29.8484 31.125 27.7083C31.125 25.5681 32.8599 23.8333 35 23.8333C37.1401 23.8333 38.875 25.5681 38.875 27.7083Z" fill="#F24242" stroke="#DAE5E1"/>
<path d="M36.5978 63.0652L36.584 63.0755L36.5709 63.0866C36.1332 63.461 35.5761 63.6668 35.0001 63.6668C34.4241 63.6668 33.867 63.461 33.4293 63.0866L33.4269 63.0846C32.9643 62.6836 27.6507 58.0789 22.4473 51.5963C17.2066 45.0672 12.1678 36.7423 12.1667 28.9357C12.2276 22.9205 14.6597 17.1723 18.9346 12.9401C23.2102 8.70723 28.9836 6.33295 35.0001 6.33325L35.0001 6.33325C41.0165 6.33295 46.7899 8.70723 51.0655 12.9401C55.3405 17.1722 57.7726 22.9204 57.8334 28.9356C57.8324 36.7432 52.8289 45.0687 47.607 51.597C42.3978 58.1094 37.0687 62.7154 36.5978 63.0652ZM29.0508 36.6119C30.8118 37.7886 32.8822 38.4166 35.0001 38.4166C37.8401 38.4166 40.5638 37.2884 42.572 35.2802C44.5802 33.272 45.7084 30.5483 45.7084 27.7083C45.7084 25.5903 45.0804 23.52 43.9037 21.759C42.7271 19.998 41.0547 18.6255 39.098 17.815C37.1413 17.0046 34.9882 16.7925 32.911 17.2057C30.8338 17.6189 28.9257 18.6387 27.4281 20.1363C25.9306 21.6339 24.9107 23.5419 24.4975 25.6192C24.0843 27.6964 24.2964 29.8495 25.1069 31.8062C25.9174 33.7628 27.2899 35.4353 29.0508 36.6119Z" fill="#F24242" stroke="#DAE5E1"/>
</svg>
