<svg width="24" height="24" viewBox="0 0 24 24" fill="current" xmlns="http://www.w3.org/2000/svg">
	<path d="M8.99976 11C9.79088 11 10.5642 10.7654 11.222 10.3259C11.8798 9.88635 12.3925 9.26164 12.6953 8.53074C12.998 7.79983 13.0772 6.99556 12.9229 6.21964C12.7686 5.44372 12.3876 4.73098 11.8282 4.17157C11.2688 3.61216 10.556 3.2312 9.78012 3.07686C9.00419 2.92252 8.19993 3.00173 7.46902 3.30448C6.73812 3.60723 6.1134 4.11992 5.67388 4.77772C5.23435 5.43552 4.99976 6.20888 4.99976 7C4.99976 8.06087 5.42118 9.07828 6.17133 9.82843C6.92147 10.5786 7.93889 11 8.99976 11ZM8.99976 5C9.39532 5 9.782 5.1173 10.1109 5.33706C10.4398 5.55683 10.6961 5.86918 10.8475 6.23463C10.9989 6.60009 11.0385 7.00222 10.9613 7.39018C10.8842 7.77814 10.6937 8.13451 10.414 8.41422C10.1343 8.69392 9.7779 8.8844 9.38994 8.96157C9.00197 9.03874 8.59984 8.99914 8.23439 8.84776C7.86894 8.69639 7.55658 8.44004 7.33682 8.11114C7.11705 7.78224 6.99976 7.39556 6.99976 7C6.99976 6.46957 7.21047 5.96086 7.58554 5.58579C7.96061 5.21072 8.46932 5 8.99976 5Z" />
	<path d="M16.9998 13C17.5931 13 18.1731 12.8241 18.6665 12.4944C19.1598 12.1648 19.5443 11.6962 19.7714 11.1481C19.9985 10.5999 20.0579 9.99667 19.9421 9.41473C19.8264 8.83279 19.5406 8.29824 19.1211 7.87868C18.7015 7.45912 18.167 7.1734 17.585 7.05765C17.0031 6.94189 16.3999 7.0013 15.8517 7.22836C15.3035 7.45543 14.835 7.83994 14.5053 8.33329C14.1757 8.82664 13.9998 9.40666 13.9998 10C13.9998 10.7957 14.3158 11.5587 14.8784 12.1213C15.441 12.6839 16.2041 13 16.9998 13ZM16.9998 9C17.1975 9 17.3909 9.05865 17.5553 9.16853C17.7198 9.27841 17.8479 9.43459 17.9236 9.61732C17.9993 9.80004 18.0191 10.0011 17.9805 10.1951C17.942 10.3891 17.8467 10.5673 17.7069 10.7071C17.567 10.847 17.3888 10.9422 17.1948 10.9808C17.0009 11.0194 16.7998 10.9996 16.6171 10.9239C16.4343 10.8482 16.2782 10.72 16.1683 10.5556C16.0584 10.3911 15.9998 10.1978 15.9998 10C15.9998 9.73478 16.1051 9.48043 16.2926 9.29289C16.4802 9.10536 16.7345 9 16.9998 9Z" />
	<path d="M16.9995 13.9998C15.8913 14.001 14.815 14.3704 13.9395 15.0498C12.96 14.0742 11.7136 13.4104 10.3573 13.1422C9.0011 12.8741 7.59583 13.0135 6.31874 13.5429C5.04165 14.0724 3.94992 14.9681 3.18125 16.1172C2.41258 17.2663 2.00138 18.6173 1.99951 19.9998C1.99951 20.265 2.10487 20.5194 2.2924 20.7069C2.47994 20.8945 2.7343 20.9998 2.99951 20.9998C3.26473 20.9998 3.51908 20.8945 3.70662 20.7069C3.89415 20.5194 3.99951 20.265 3.99951 19.9998C3.99951 18.6737 4.5263 17.402 5.46398 16.4643C6.40166 15.5266 7.67343 14.9998 8.99951 14.9998C10.3256 14.9998 11.5974 15.5266 12.535 16.4643C13.4727 17.402 13.9995 18.6737 13.9995 19.9998C13.9995 20.265 14.1049 20.5194 14.2924 20.7069C14.4799 20.8945 14.7343 20.9998 14.9995 20.9998C15.2647 20.9998 15.5191 20.8945 15.7066 20.7069C15.8942 20.5194 15.9995 20.265 15.9995 19.9998C16.0019 18.8282 15.7059 17.6754 15.1395 16.6498C15.5814 16.3006 16.1127 16.0828 16.6726 16.0215C17.2325 15.9601 17.7984 16.0576 18.3055 16.3028C18.8125 16.548 19.2404 16.931 19.5399 17.4079C19.8395 17.8849 19.9988 18.4366 19.9995 18.9998C19.9995 19.265 20.1049 19.5194 20.2924 19.7069C20.4799 19.8945 20.7343 19.9998 20.9995 19.9998C21.2647 19.9998 21.5191 19.8945 21.7066 19.7069C21.8942 19.5194 21.9995 19.265 21.9995 18.9998C21.9995 17.6737 21.4727 16.402 20.535 15.4643C19.5974 14.5266 18.3256 13.9998 16.9995 13.9998Z" />
</svg>
