<svg width="current" height="current" viewBox="0 0 16 16" fill="current" xmlns="http://www.w3.org/2000/svg">
	<path d="M5.99967 7.33333C6.52709 7.33333 7.04266 7.17694 7.48119 6.88392C7.91973 6.5909 8.26152 6.17443 8.46335 5.68716C8.66519 5.19989 8.718 4.66371 8.6151 4.14643C8.51221 3.62914 8.25823 3.15399 7.88529 2.78105C7.51235 2.40811 7.0372 2.15413 6.51992 2.05124C6.00263 1.94835 5.46646 2.00116 4.97919 2.20299C4.49192 2.40482 4.07544 2.74662 3.78242 3.18515C3.4894 3.62368 3.33301 4.13925 3.33301 4.66667C3.33301 5.37391 3.61396 6.05219 4.11406 6.55229C4.61415 7.05238 5.29243 7.33333 5.99967 7.33333ZM5.99967 3.33333C6.26338 3.33333 6.52117 3.41153 6.74043 3.55804C6.9597 3.70455 7.1306 3.91279 7.23151 4.15642C7.33243 4.40006 7.35884 4.66815 7.30739 4.92679C7.25594 5.18543 7.12895 5.42301 6.94248 5.60948C6.75601 5.79595 6.51844 5.92294 6.25979 5.97438C6.00115 6.02583 5.73306 5.99942 5.48943 5.89851C5.2458 5.79759 5.03756 5.62669 4.89105 5.40743C4.74454 5.18816 4.66634 4.93038 4.66634 4.66667C4.66634 4.31305 4.80682 3.97391 5.05687 3.72386C5.30691 3.47381 5.64605 3.33333 5.99967 3.33333Z" />
	<path d="M11.333 8.66663C11.7286 8.66663 12.1152 8.54933 12.4441 8.32957C12.773 8.1098 13.0294 7.79745 13.1808 7.43199C13.3321 7.06654 13.3717 6.66441 13.2946 6.27645C13.2174 5.88848 13.0269 5.53212 12.7472 5.25241C12.4675 4.97271 12.1112 4.78223 11.7232 4.70506C11.3352 4.62789 10.9331 4.66749 10.5676 4.81887C10.2022 4.97024 9.88983 5.22659 9.67007 5.55549C9.45031 5.88438 9.33301 6.27106 9.33301 6.66663C9.33301 7.19706 9.54372 7.70577 9.91879 8.08084C10.2939 8.45591 10.8026 8.66663 11.333 8.66663ZM11.333 5.99996C11.4649 5.99996 11.5938 6.03906 11.7034 6.11231C11.813 6.18557 11.8985 6.28969 11.9489 6.4115C11.9994 6.53332 12.0126 6.66737 11.9869 6.79669C11.9611 6.92601 11.8976 7.0448 11.8044 7.13803C11.7112 7.23127 11.5924 7.29476 11.4631 7.32048C11.3337 7.34621 11.1997 7.333 11.0779 7.28255C10.9561 7.23209 10.8519 7.14664 10.7787 7.03701C10.7054 6.92737 10.6663 6.79848 10.6663 6.66663C10.6663 6.48982 10.7366 6.32025 10.8616 6.19522C10.9866 6.0702 11.1562 5.99996 11.333 5.99996Z" />
	<path d="M11.333 9.33333C10.5942 9.33415 9.87665 9.58038 9.29301 10.0333C8.64002 9.3829 7.80904 8.94039 6.90489 8.76161C6.00074 8.58283 5.06389 8.67579 4.21249 9.02875C3.3611 9.38172 2.63328 9.97889 2.12084 10.745C1.60839 11.511 1.33425 12.4117 1.33301 13.3333C1.33301 13.5101 1.40325 13.6797 1.52827 13.8047C1.65329 13.9298 1.82286 14 1.99967 14C2.17649 14 2.34605 13.9298 2.47108 13.8047C2.5961 13.6797 2.66634 13.5101 2.66634 13.3333C2.66634 12.4493 3.01753 11.6014 3.64265 10.9763C4.26777 10.3512 5.11562 10 5.99967 10C6.88373 10 7.73158 10.3512 8.3567 10.9763C8.98182 11.6014 9.33301 12.4493 9.33301 13.3333C9.33301 13.5101 9.40325 13.6797 9.52827 13.8047C9.65329 13.9298 9.82286 14 9.99967 14C10.1765 14 10.3461 13.9298 10.4711 13.8047C10.5961 13.6797 10.6663 13.5101 10.6663 13.3333C10.6679 12.5523 10.4706 11.7837 10.093 11.1C10.3876 10.8672 10.7418 10.722 11.1151 10.6811C11.4884 10.6402 11.8656 10.7052 12.2036 10.8686C12.5417 11.0321 12.8269 11.2874 13.0266 11.6054C13.2264 11.9234 13.3325 12.2912 13.333 12.6667C13.333 12.8435 13.4032 13.013 13.5283 13.1381C13.6533 13.2631 13.8229 13.3333 13.9997 13.3333C14.1765 13.3333 14.3461 13.2631 14.4711 13.1381C14.5961 13.013 14.6663 12.8435 14.6663 12.6667C14.6663 11.7826 14.3152 10.9348 13.69 10.3096C13.0649 9.68452 12.2171 9.33333 11.333 9.33333Z" />
</svg>
