<svg xmlns="http://www.w3.org/2000/svg" width="current" height="current" viewBox="0 0 24 25" fill="none">
	<path d="M12 11.5C12.7911 11.5 13.5645 11.2654 14.2223 10.8259C14.8801 10.3864 15.3928 9.76164 15.6955 9.03074C15.9983 8.29983 16.0775 7.49556 15.9231 6.71964C15.7688 5.94372 15.3878 5.23098 14.8284 4.67157C14.269 4.11216 13.5563 3.7312 12.7804 3.57686C12.0044 3.42252 11.2002 3.50173 10.4693 3.80448C9.73836 4.10723 9.11365 4.61992 8.67412 5.27772C8.2346 5.93552 8 6.70888 8 7.5C8 8.56087 8.42143 9.57828 9.17157 10.3284C9.92172 11.0786 10.9391 11.5 12 11.5ZM12 5.5C12.3956 5.5 12.7822 5.6173 13.1111 5.83706C13.44 6.05683 13.6964 6.36918 13.8478 6.73463C13.9991 7.10009 14.0387 7.50222 13.9616 7.89018C13.8844 8.27814 13.6939 8.63451 13.4142 8.91422C13.1345 9.19392 12.7781 9.3844 12.3902 9.46157C12.0022 9.53874 11.6001 9.49914 11.2346 9.34776C10.8692 9.19639 10.5568 8.94004 10.3371 8.61114C10.1173 8.28224 10 7.89556 10 7.5C10 6.96957 10.2107 6.46086 10.5858 6.08579C10.9609 5.71072 11.4696 5.5 12 5.5Z" fill="current" />
	<path d="M12 13.5C10.1435 13.5 8.36301 14.2375 7.05025 15.5503C5.7375 16.863 5 18.6435 5 20.5C5 20.7652 5.10536 21.0196 5.29289 21.2071C5.48043 21.3946 5.73478 21.5 6 21.5C6.26522 21.5 6.51957 21.3946 6.70711 21.2071C6.89464 21.0196 7 20.7652 7 20.5C7 19.1739 7.52678 17.9021 8.46447 16.9645C9.40215 16.0268 10.6739 15.5 12 15.5C13.3261 15.5 14.5979 16.0268 15.5355 16.9645C16.4732 17.9021 17 19.1739 17 20.5C17 20.7652 17.1054 21.0196 17.2929 21.2071C17.4804 21.3946 17.7348 21.5 18 21.5C18.2652 21.5 18.5196 21.3946 18.7071 21.2071C18.8946 21.0196 19 20.7652 19 20.5C19 18.6435 18.2625 16.863 16.9497 15.5503C15.637 14.2375 13.8565 13.5 12 13.5Z" fill="current" />
</svg>
